<svg width="131" height="32" viewBox="0 0 131 32" fill="none" xmlns="http://www.w3.org/2000/svg">
<path d="M17.7949 15.8047H8.14453L6.36914 26H0.357422L4.78711 0.40625H21.4336L20.6074 5.16992H9.99023L8.9707 11.0586H18.6211L17.7949 15.8047ZM26.0391 26H20.0273L24.4746 0.40625H30.4688L26.0391 26ZM52.9512 5.16992H45.498L41.8945 26H35.8652L39.4863 5.16992H32.1562L33 0.40625H53.7773L52.9512 5.16992ZM64.9219 21.2188H56.748L54.4805 26H47.8535L61.4062 0.40625H67.0664L71.7949 26H65.5371L64.9219 21.2188ZM58.998 16.4551H64.3066L63.1816 7.63086L58.998 16.4551ZM81.3926 17.3164L79.8809 26H73.8691L78.2988 0.40625L87.4922 0.423828C90.3398 0.423828 92.5781 1.21484 94.207 2.79688C95.8477 4.37891 96.5684 6.42969 96.3691 8.94922C96.2285 10.6719 95.6777 12.166 94.7168 13.4316C93.7559 14.6973 92.4844 15.6641 90.9023 16.332C89.332 17 87.5684 17.334 85.6113 17.334L81.3926 17.3164ZM82.2188 12.5527L85.8398 12.5879C87.3633 12.5527 88.5293 12.0605 89.3379 11.1113C90.1465 10.1504 90.4688 8.97266 90.3047 7.57812C90.2109 6.86328 89.9355 6.30078 89.4785 5.89062C89.0332 5.46875 88.4414 5.23438 87.7031 5.1875L83.502 5.16992L82.2188 12.5527ZM104.314 17.3164L102.803 26H96.791L101.221 0.40625L110.414 0.423828C113.262 0.423828 115.5 1.21484 117.129 2.79688C118.77 4.37891 119.49 6.42969 119.291 8.94922C119.15 10.6719 118.6 12.166 117.639 13.4316C116.678 14.6973 115.406 15.6641 113.824 16.332C112.254 17 110.49 17.334 108.533 17.334L104.314 17.3164ZM105.141 12.5527L108.762 12.5879C110.285 12.5527 111.451 12.0605 112.26 11.1113C113.068 10.1504 113.391 8.97266 113.227 7.57812C113.133 6.86328 112.857 6.30078 112.4 5.89062C111.955 5.46875 111.363 5.23438 110.625 5.1875L106.424 5.16992L105.141 12.5527Z" fill="#788BFF"/>
<path d="M28.7949 21.8047H19.1445L17.3691 32H11.3574L15.7871 6.40625H32.4336L31.6074 11.1699H20.9902L19.9707 17.0586H29.6211L28.7949 21.8047ZM37.0391 32H31.0273L35.4746 6.40625H41.4688L37.0391 32ZM63.9512 11.1699H56.498L52.8945 32H46.8652L50.4863 11.1699H43.1562L44 6.40625H64.7773L63.9512 11.1699ZM75.9219 27.2188H67.748L65.4805 32H58.8535L72.4062 6.40625H78.0664L82.7949 32H76.5371L75.9219 27.2188ZM69.998 22.4551H75.3066L74.1816 13.6309L69.998 22.4551ZM92.3926 23.3164L90.8809 32H84.8691L89.2988 6.40625L98.4922 6.42383C101.34 6.42383 103.578 7.21484 105.207 8.79688C106.848 10.3789 107.568 12.4297 107.369 14.9492C107.229 16.6719 106.678 18.166 105.717 19.4316C104.756 20.6973 103.484 21.6641 101.902 22.332C100.332 23 98.5684 23.334 96.6113 23.334L92.3926 23.3164ZM93.2188 18.5527L96.8398 18.5879C98.3633 18.5527 99.5293 18.0605 100.338 17.1113C101.146 16.1504 101.469 14.9727 101.305 13.5781C101.211 12.8633 100.936 12.3008 100.479 11.8906C100.033 11.4688 99.4414 11.2344 98.7031 11.1875L94.502 11.1699L93.2188 18.5527ZM115.314 23.3164L113.803 32H107.791L112.221 6.40625L121.414 6.42383C124.262 6.42383 126.5 7.21484 128.129 8.79688C129.77 10.3789 130.49 12.4297 130.291 14.9492C130.15 16.6719 129.6 18.166 128.639 19.4316C127.678 20.6973 126.406 21.6641 124.824 22.332C123.254 23 121.49 23.334 119.533 23.334L115.314 23.3164ZM116.141 18.5527L119.762 18.5879C121.285 18.5527 122.451 18.0605 123.26 17.1113C124.068 16.1504 124.391 14.9727 124.227 13.5781C124.133 12.8633 123.857 12.3008 123.4 11.8906C122.955 11.4688 122.363 11.2344 121.625 11.1875L117.424 11.1699L116.141 18.5527Z" fill="#FF0000"/>
</svg>
